<svg width="19" height="16" viewBox="0 0 19 16" fill="none" xmlns="http://www.w3.org/2000/svg">
<path d="M0.514282 13.6109C2.47256 13.7864 4.17542 13.3039 5.75056 12.1635C5.40999 12.0758 5.11199 12.0319 4.85656 11.9442C3.79228 11.5933 3.06856 10.8915 2.60028 9.83884C2.47256 9.53181 2.47256 9.48795 2.81313 9.48795C3.15371 9.48795 3.49428 9.53181 3.91999 9.40022C3.28142 9.22478 2.77056 8.91775 2.34485 8.523C1.66371 7.86508 1.238 7.03171 1.19542 6.06676C1.15285 5.67201 1.19542 5.62814 1.53599 5.80359C1.87656 5.97904 2.21714 6.06676 2.64285 6.06676C2.38742 5.75973 2.08942 5.54042 1.91914 5.23339C1.11028 4.04913 0.982567 2.77716 1.53599 1.46131C1.66371 1.11042 1.74885 1.11042 2.00428 1.37359C3.23885 2.77716 4.68627 3.82983 6.4317 4.44389C7.19798 4.70706 7.96427 4.8825 8.77312 4.97022C9.19884 5.01409 9.24141 4.97022 9.15626 4.53161C8.98598 3.04032 9.79484 1.50518 11.1145 0.803394C12.4343 0.101612 14.1371 0.277057 15.2014 1.32973C15.4143 1.54904 15.6271 1.54904 15.8825 1.50517C16.436 1.32973 16.9894 1.15428 17.5002 0.847254C17.5854 0.803393 17.6705 0.715671 17.7982 0.759532C17.5428 1.54904 17.0745 2.1631 16.436 2.68943C17.032 2.60171 17.628 2.42626 18.224 2.20696C18.224 2.42626 18.0962 2.51399 18.0537 2.64557C17.6705 3.12805 17.2874 3.56666 16.8191 3.91755C16.6062 4.093 16.5211 4.26844 16.5211 4.57547C16.5637 7.07557 15.7974 9.3125 14.35 11.2863C12.6471 13.6548 10.3057 14.9706 7.49598 15.3215C5.15456 15.6285 2.94085 15.1461 0.897424 13.9618C0.812281 13.9179 0.76971 13.8741 0.684567 13.8302C0.641996 13.7425 0.599425 13.6986 0.514282 13.6109Z" fill="white"/>
</svg>
